<svg
        width="48"
        height="48"
        viewBox="0 0 48 48"
        fill="none"
        xmlns="http://www.w3.org/2000/svg"
>
    <g clip-path="url(#clip0_67_170)">
        <path
                d="M24.003 47.8229C37.1608 47.8229 47.8273 37.157 47.8273 24C47.8273 10.8429 37.1608 0.177063 24.003 0.177063C10.8452 0.177063 0.17868 10.8429 0.17868 24C0.17868 37.157 10.8452 47.8229 24.003 47.8229Z"
                fill="#E48E43"
                stroke="#F1D867"
                stroke-width="0.6"
                stroke-miterlimit="10"
        />
        <path
                d="M20.8284 41.513C20.8284 41.513 21.0964 36.4722 23.0798 35.4393C25.0632 34.4063 27.1359 36.0059 30.2449 38.8333C30.2449 38.8333 31.7518 39.9666 32.6988 37.4166C33.8365 34.3473 37.3208 33.456 37.3208 33.456C37.3208 33.456 38.1665 33.3615 37.3208 31.2071C36.2784 28.5568 38.2618 26.1013 38.2618 26.1013C38.0891 26.3374 40.0665 23.699 39.1076 20.8244"
                stroke="#FEDE59"
                stroke-width="0.3"
                stroke-miterlimit="10"
        />
        <path
                d="M24.5271 32.8952C32.7507 32.8952 39.4173 26.2304 39.4173 18.0089C39.4173 9.78736 32.7507 3.1225 24.5271 3.1225C16.3035 3.1225 9.63692 9.78736 9.63692 18.0089C9.63692 26.2304 16.3035 32.8952 24.5271 32.8952Z"
                stroke="#FEDE59"
                stroke-width="0.3"
                stroke-miterlimit="10"
        />
        <path
                d="M36.2189 29.3065L33.2111 27.3586L33.8901 26.3138L36.8979 28.2617L36.2189 29.3065Z"
                fill="#E48E43"
                stroke="#E48E43"
                stroke-width="0.3"
                stroke-miterlimit="10"
        />
        <path
                d="M20.2804 24.7319C20.2804 24.7319 22.9785 22.3178 24.0685 23.4098C24.7415 24.0886 25.8494 23.5219 25.8494 23.5219"
                stroke="#587260"
                stroke-width="0.3"
                stroke-linecap="round"
                stroke-linejoin="round"
        />
        <path
                d="M29.3039 24.3069C29.3039 24.3069 29.7089 24.3778 30.1199 25.0979C30.5308 25.818 30.9061 27.4176 30.9061 27.4176"
                stroke="#FEDE59"
                stroke-width="0.3"
                stroke-miterlimit="10"
        />
        <path
                d="M26.6475 25.1156C26.6475 25.1156 27.4158 23.7521 28.3271 24.1299C29.2086 24.4958 29.3039 24.3069 29.3039 24.3069"
                stroke="#587260"
                stroke-width="0.3"
                stroke-linecap="round"
                stroke-linejoin="round"
        />
        <path
                d="M24.0685 16.0197C24.0685 16.0197 26.8798 22.058 26.8678 24.4604C26.8559 26.8627 25.2835 30.6817 24.8904 31.7914L24.4973 32.8952C24.4973 32.8952 25.629 27.4294 25.8732 25.7412C26.1114 24.1239 25.7124 21.875 24.3961 19.6498C23.0798 17.4304 24.0685 16.0197 24.0685 16.0197Z"
                fill="#878E62"
        />
        <path
                d="M13.1689 26.5676C13.1689 26.5676 11.8645 23.7108 11.793 23.5042C11.7216 23.2976 10.3219 17.6901 10.3219 17.6901C10.3219 17.6901 11.0187 18.1033 11.1617 18.3217C11.4416 18.7408 13.4726 23.5042 13.4726 23.5042L18.029 28.6867L13.1689 26.5676Z"
                fill="#E48E43"
                stroke="#F1D867"
                stroke-width="0.3"
                stroke-miterlimit="10"
        />
        <path
                d="M20.8641 41.5189C24.1936 34.7959 19.9886 32.7536 19.5597 32.4762C19.1309 32.1987 14.9021 29.9734 14.9021 29.9734L7.6476 21.8515C7.6476 21.8515 8.66013 21.4619 10.2564 23.0143L15.4441 27.4294H17.0761L14.9021 25.8888V24.2066C14.9021 23.5455 14.8366 22.1761 14.8366 22.1761L16.3316 17.8318C16.3316 17.8318 16.8974 18.2804 16.5102 19.9154C16.129 21.5445 16.0576 22.0344 16.0576 22.0344L16.9331 26.7329L17.0046 25.6055V23.7698L17.7729 19.7856C17.7729 19.7856 18.2792 19.7856 18.2732 20.5588C18.2673 21.332 18.1422 23.9351 18.1422 23.9351L20.3698 28.3443L22.0673 31.1658"
                fill="#E48E43"
        />
        <path
                d="M20.8641 41.5189C24.1936 34.7959 19.9886 32.7536 19.5597 32.4762C19.1309 32.1987 14.9021 29.9734 14.9021 29.9734L7.6476 21.8515C7.6476 21.8515 8.66013 21.4619 10.2564 23.0143L15.4441 27.4294H17.0761L14.9021 25.8888V24.2066C14.9021 23.5455 14.8366 22.1761 14.8366 22.1761L16.3316 17.8318C16.3316 17.8318 16.8974 18.2804 16.5102 19.9154C16.129 21.5445 16.0576 22.0344 16.0576 22.0344L16.9331 26.7329L17.0046 25.6055V23.7698L17.7729 19.7856C17.7729 19.7856 18.2792 19.7856 18.2732 20.5588C18.2673 21.332 18.1422 23.9351 18.1422 23.9351L20.3698 28.3443L22.0673 31.1658"
                stroke="#F1D867"
                stroke-width="0.3"
                stroke-miterlimit="10"
        />
        <path
                d="M18.9344 29.4599L15.736 27.2051L12.8175 23.8643C12.8175 23.8643 15.6407 24.2538 17.1178 26.0246C17.1178 26.0246 21.835 27.7423 23.4252 29.2474C24.5926 30.3512 24.2531 31.1658 25.4563 33.4501C26.1769 34.8254 26.9572 35.8525 27.5052 36.5017"
                fill="#E48E43"
        />
        <path
                d="M18.9344 29.4599L15.736 27.2051L12.8175 23.8643C12.8175 23.8643 15.6407 24.2538 17.1178 26.0246C17.1178 26.0246 21.835 27.7423 23.4252 29.2474C24.5926 30.3512 24.2531 31.1658 25.4563 33.4501C26.1769 34.8254 26.9572 35.8525 27.5052 36.5017"
                stroke="#FEDE59"
                stroke-width="0.3"
                stroke-miterlimit="10"
        />
        <path
                d="M23.8958 12.3719C23.8958 12.3719 23.1751 10.2174 23.8958 6.97689C24.6165 3.74226 25.4265 11.0733 25.1644 12.3719C24.9023 13.6645 23.8958 12.3719 23.8958 12.3719Z"
                fill="#CFB46E"
        />
        <path
                d="M23.2168 12.7201C23.2168 12.7201 21.8052 10.9375 21.3704 7.64977C20.9356 4.36202 24.2114 10.9788 24.408 12.2833C24.6045 13.5878 23.2168 12.7201 23.2168 12.7201Z"
                fill="#CFA32B"
        />
        <path
                d="M22.7046 13.275C22.7046 13.275 20.7688 12.0886 19.2381 9.14316C17.7074 6.19776 23.044 11.2976 23.6754 12.4604C24.3067 13.6232 22.7046 13.275 22.7046 13.275Z"
                fill="#C7912B"
        />
        <path
                d="M22.4127 13.9774C22.4127 13.9774 20.1851 13.5229 17.7431 11.2799C15.3012 9.03688 22.0613 12 23.05 12.8795C24.0387 13.7531 22.4127 13.9774 22.4127 13.9774Z"
                fill="#CFA32B"
        />
        <path
                d="M22.377 14.7329C22.377 14.7329 20.1315 15.0694 17.0641 13.7944C13.9968 12.5194 21.3644 12.9975 22.5973 13.4816C23.8302 13.9656 22.377 14.7329 22.377 14.7329Z"
                fill="#CFB46E"
        />
        <path
                d="M22.5973 15.4589C22.5973 15.4589 20.5961 16.5391 17.2845 16.3974C13.973 16.2558 21.0547 14.178 22.377 14.2135C23.6992 14.2489 22.5973 15.4648 22.5973 15.4648V15.4589Z"
                fill="#CFA32B"
        />
        <path
                d="M23.056 16.061C23.056 16.061 21.5491 17.7609 18.3864 18.7585C15.2237 19.756 21.1679 15.3822 22.4246 14.9631C23.6754 14.544 23.0619 16.061 23.0619 16.061H23.056Z"
                fill="#CFB46E"
        />
        <path
                d="M23.6933 16.4683C23.6933 16.4683 22.8594 18.5814 20.2268 20.6001C17.5942 22.6188 21.6861 16.4742 22.7224 15.6537C23.7528 14.8333 23.6933 16.4683 23.6933 16.4683Z"
                fill="#CFA32B"
        />
        <path
                d="M24.4378 16.6394C24.4378 16.6394 24.3782 18.9119 22.5914 21.7098C20.8105 24.5076 22.5557 17.3359 23.2406 16.2085C23.9315 15.0811 24.4318 16.6453 24.4318 16.6453L24.4378 16.6394Z"
                fill="#C7912B"
        />
        <path
                d="M25.1882 16.545C25.1882 16.545 25.9089 18.6995 25.1882 21.94C24.4675 25.1806 23.6575 17.8436 23.9196 16.545C24.1817 15.2465 25.1882 16.545 25.1882 16.545Z"
                fill="#CFA32B"
        />
        <path
                d="M25.8613 16.1968C25.8613 16.1968 27.2729 17.9794 27.7077 21.2671C28.1365 24.5549 24.8666 17.938 24.6701 16.6336C24.4735 15.3291 25.8613 16.1968 25.8613 16.1968Z"
                fill="#CFB46E"
        />
        <path
                d="M26.3795 15.636C26.3795 15.636 28.3152 16.8225 29.8459 19.7679C31.3766 22.7133 26.04 17.6134 25.4086 16.4506C24.7773 15.2878 26.3795 15.636 26.3795 15.636Z"
                fill="#C7912B"
        />
        <path
                d="M26.6713 14.9395C26.6713 14.9395 28.8989 15.394 31.3409 17.637C33.7829 19.88 27.0227 16.9169 26.034 16.0374C25.0453 15.1638 26.6713 14.9395 26.6713 14.9395Z"
                fill="#CFA32B"
        />
        <path
                d="M26.707 14.184C26.707 14.184 28.9525 13.8475 32.0198 15.1225C35.0872 16.3974 27.7196 15.9193 26.4867 15.4353C25.2537 14.9513 26.707 14.184 26.707 14.184Z"
                fill="#C7912B"
        />
        <path
                d="M26.4807 13.458C26.4807 13.458 28.4819 12.3778 31.7935 12.5195C35.1051 12.667 28.0233 14.7388 26.7011 14.7034C25.3788 14.668 26.4807 13.4521 26.4807 13.4521V13.458Z"
                fill="#CFA32B"
        />
        <path
                d="M26.0221 12.8559C26.0221 12.8559 27.529 11.156 30.6917 10.1584C33.8543 9.16088 27.9102 13.5347 26.6534 13.9538C25.4027 14.3729 26.0161 12.8559 26.0161 12.8559H26.0221Z"
                fill="#CFB46E"
        />
        <path
                d="M25.3848 12.4427C25.3848 12.4427 26.2186 10.3296 28.8512 8.31086C31.4838 6.29217 27.392 12.4368 26.3556 13.2572C25.3252 14.0777 25.3848 12.4427 25.3848 12.4427Z"
                fill="#CFA32B"
        />
        <path
                d="M24.6462 12.2774C24.6462 12.2774 24.7058 10.0049 26.4926 7.20707C28.2794 4.40924 26.5284 11.5809 25.8434 12.7083C25.1525 13.8357 24.6522 12.2715 24.6522 12.2715L24.6462 12.2774Z"
                fill="#CFA32B"
        />
        <path
                d="M25.2299 12.3246C25.2299 12.3246 25.3074 9.57992 27.6957 8.00983C27.6957 8.00983 28.1305 9.0841 27.4932 10.5952C26.8559 12.1062 26.028 12.8677 26.028 12.8677L25.2299 12.3246Z"
                fill="#DDB127"
        />
        <path
                d="M27.6957 8.00983C27.6957 8.00983 27.1716 8.66502 26.8976 9.64485C26.6237 10.6247 25.6171 12.5843 25.6171 12.5843"
                fill="#DDB127"
        />
        <path
                d="M23.6099 12.2774C23.6099 12.2774 21.9064 10.123 22.7284 7.39008C22.7284 7.39008 23.7528 7.93312 24.2353 9.50321C24.7177 11.0733 24.5748 12.183 24.5748 12.183L23.6158 12.2774H23.6099Z"
                fill="#DDB127"
        />
        <path
                d="M22.7224 7.39008C22.7224 7.39008 22.7403 8.22825 23.1572 9.15496C23.5741 10.0817 24.0625 12.2302 24.0625 12.2302"
                fill="#DDB127"
        />
        <path
                d="M22.3354 13.2809C22.3354 13.2809 19.6433 12.726 18.5176 10.1053C18.5176 10.1053 19.6493 9.86328 21.0311 10.7546C22.4069 11.6459 23.0144 12.5903 23.0144 12.5903L22.3414 13.2809H22.3354Z"
                fill="#DDB127"
        />
        <path
                d="M18.5115 10.1053C18.5115 10.1053 19.0654 10.7369 19.9826 11.1796C20.8999 11.6223 22.6569 12.9503 22.6569 12.9503"
                fill="#DDB127"
        />
        <path
                d="M22.0079 14.8746C22.0079 14.8746 19.5897 16.1791 17.0405 14.8982C17.0405 14.8982 17.7552 13.9833 19.3812 13.7826C21.0072 13.5819 22.0793 13.9184 22.0793 13.9184L22.0079 14.8805V14.8746Z"
                fill="#DDB127"
        />
        <path
                d="M17.0344 14.8923C17.0344 14.8923 17.8623 15.0162 18.851 14.7683C19.8397 14.5204 22.0375 14.4083 22.0375 14.4083"
                fill="#DDB127"
        />
        <path
                d="M22.776 16.303C22.776 16.303 21.7635 18.8588 18.982 19.514C18.982 19.514 18.9403 18.3571 20.0541 17.153C21.1679 15.9488 22.2102 15.5179 22.2102 15.5179L22.776 16.303Z"
                fill="#DDB127"
        />
        <path
                d="M18.982 19.5081C18.982 19.5081 19.6967 19.0713 20.2923 18.2449C20.888 17.4186 22.502 15.9193 22.502 15.9193"
                fill="#DDB127"
        />
        <path
                d="M24.2829 16.8991C24.2829 16.8991 25.1465 19.5081 23.4431 21.7983C23.4431 21.7983 22.6629 20.9365 22.7462 19.3015C22.8296 17.6665 23.3478 16.6689 23.3478 16.6689L24.2829 16.905V16.8991Z"
                fill="#DDB127"
        />
        <path
                d="M23.4431 21.7983C23.4431 21.7983 23.7111 21.0014 23.6337 19.9862C23.5563 18.971 23.8362 16.787 23.8362 16.787"
                fill="#DDB127"
        />
        <path
                d="M25.8255 16.3915C25.8255 16.3915 28.1663 17.8318 28.3271 20.6827C28.3271 20.6827 27.1776 20.5234 26.1889 19.213C25.2001 17.9026 24.9559 16.8106 24.9559 16.8106L25.8255 16.3915Z"
                fill="#DDB127"
        />
        <path
                d="M28.3271 20.6827C28.3271 20.6827 28.0233 19.9036 27.3146 19.1717C26.6058 18.4397 25.4086 16.5922 25.4086 16.5922"
                fill="#DDB127"
        />
        <path
                d="M26.6772 15.0104C26.6772 15.0104 29.3992 14.609 31.3528 16.6926C31.3528 16.6926 30.37 17.3065 28.7738 16.9405C27.1776 16.5745 26.2841 15.8898 26.2841 15.8898L26.6772 15.0104Z"
                fill="#DDB127"
        />
        <path
                d="M31.3528 16.6867C31.3528 16.6867 30.6142 16.2853 29.6017 16.185C28.5891 16.0847 26.4807 15.4354 26.4807 15.4354"
                fill="#DDB127"
        />
        <path
                d="M26.439 13.4049C26.439 13.4049 28.2675 11.3508 31.1026 11.6872C31.1026 11.6872 30.7453 12.791 29.286 13.5406C27.8268 14.2903 26.7011 14.3375 26.7011 14.3375L26.439 13.4108V13.4049Z"
                fill="#DDB127"
        />
        <path
                d="M31.1026 11.6872C31.1026 11.6872 30.2807 11.8525 29.4409 12.425C28.6011 12.9976 26.57 13.8535 26.57 13.8535"
                fill="#DDB127"
        />
        <path
                d="M27.6362 14.8155C27.7017 15.636 27.392 16.2853 26.9036 16.787C26.1948 17.5189 25.5277 17.7078 24.6165 17.7432C23.0857 17.8023 23.0798 17.4894 22.5676 17.0231C21.7635 16.2912 21.5967 15.7364 21.5967 14.8155C21.5967 14.3374 21.7278 13.8416 21.9958 13.4875C22.7999 12.425 23.3657 11.9587 24.6165 11.9823C25.492 12 26.2306 12.2243 26.8381 12.7673C27.5171 13.3753 27.5766 14.0305 27.6421 14.8155H27.6362Z"
                fill="#9C6126"
        />
        <path
                d="M27.2431 14.8097C27.2431 15.3763 26.7547 15.8721 26.4628 16.303C25.9864 16.9995 25.3074 16.9995 24.545 16.9995C23.8839 16.9995 23.318 16.9464 22.8892 16.5155C22.4484 16.0787 22.1804 15.4767 22.1804 14.8097C22.1804 14.2253 22.5199 13.818 22.8713 13.4049C23.3121 12.8795 23.8422 12.6729 24.5867 12.6729C25.1585 12.6729 25.6885 12.6139 26.0995 12.9504C26.6415 13.393 27.249 14.06 27.249 14.8156L27.2431 14.8097Z"
                fill="#AD7945"
        />
        <path
                d="M25.9923 15.1638C25.7243 15.7718 25.3431 16.0374 24.676 16.0374C24.0089 16.0374 23.4729 15.819 23.4729 14.8333C23.4729 14.1663 24.0208 13.8593 24.676 13.7354C25.8077 13.5229 26.3497 14.3256 25.9923 15.1579V15.1638Z"
                fill="#9B6A2E"
        />
        <path
                d="M24.2293 24.0886C24.2293 24.0886 24.3663 23.2327 24.2889 23.1559C24.2174 23.0792 22.234 21.397 20.2804 24.7319C20.2804 24.7319 21.4359 24.0827 22.3055 24.0413C23.1751 24 23.1215 24.2951 23.5563 24.2479C23.9911 24.2007 24.2234 24.0886 24.2234 24.0886H24.2293Z"
                fill="#949C6C"
        />
        <path
                d="M29.0597 24.4368C29.0597 24.4368 30.108 22.4004 30.7393 24.0649C30.7393 24.0649 30.8048 24.6906 30.9954 25.1628C31.186 25.635 31.5851 25.818 31.3826 26.1958C31.18 26.5735 30.9954 27.2346 30.9001 27.4235C30.8048 27.6124 30.9001 27.0457 29.6732 26.5735C29.6732 26.5735 29.5362 25.759 29.1788 25.6468C28.8214 25.5347 27.3205 25.511 28.1663 24.5784L29.0537 24.4368H29.0597Z"
                fill="#9DA579"
        />
        <path
                d="M20.2804 24.7319C21.1024 23.9528 22.639 22.9375 23.8183 23.268C24.003 23.3271 24.1697 23.4274 24.3008 23.5632C24.1459 23.4569 23.9732 23.3861 23.7945 23.3566C22.6509 23.1795 21.2215 24.1534 20.2745 24.7378L20.2804 24.7319Z"
                fill="#587260"
        />
        <path
                d="M29.1133 24.4014C29.6136 24.7555 30.0663 25.1687 30.4296 25.6645C30.775 26.1781 30.9001 26.8096 30.9061 27.4176C30.7572 26.845 30.6202 26.2489 30.2807 25.7649C29.9888 25.3399 29.4587 24.7909 29.1133 24.4014Z"
                fill="#587260"
        />
        <path
                d="M37.0527 28.1732C36.3618 28.0846 35.6352 27.8721 35.117 27.3881C34.6941 26.9336 34.4618 26.367 34.0747 25.8948C34.0151 25.8357 33.9556 25.7708 33.896 25.7059C34.039 25.8062 34.1879 25.9066 34.301 26.0423C34.6227 26.4142 34.9205 26.9041 35.2421 27.2642C35.7364 27.7246 36.4154 27.9548 37.0527 28.1732Z"
                fill="#FEDE59"
        />
        <path
                d="M34.7537 26.9454C34.4142 26.8038 34.0032 26.6916 33.6518 26.8687C33.896 26.6857 34.2296 26.6798 34.5214 26.7211C34.6227 26.7329 34.718 26.7507 34.8192 26.7861C34.8669 26.7979 34.8907 26.851 34.8788 26.8982C34.8669 26.9513 34.8013 26.975 34.7537 26.9513V26.9454Z"
                fill="#FEDE59"
        />
        <path
                d="M34.5095 26.6031C34.1819 26.3965 33.7531 26.367 33.3719 26.4496C33.4672 26.4142 33.5625 26.3847 33.6637 26.367C33.9794 26.308 34.301 26.3257 34.5988 26.4555C34.6405 26.4791 34.6643 26.5323 34.6405 26.5736C34.6167 26.6267 34.5512 26.6385 34.5035 26.6031H34.5095Z"
                fill="#FEDE59"
        />
        <path
                d="M34.3189 26.3138C34.1104 26.1545 33.8484 26.0423 33.5803 26.0187C33.491 26.0069 33.3957 26.0187 33.3004 26.0305C33.3897 26.0069 33.485 25.9833 33.5803 25.9774C33.8722 25.9597 34.164 26.0364 34.4201 26.1722C34.4618 26.1958 34.4797 26.2489 34.4559 26.2902C34.4261 26.3374 34.3606 26.3492 34.3189 26.3138Z"
                fill="#FEDE59"
        />
        <path
                d="M35.0158 27.2464C34.6703 27.1402 34.2713 27.1343 33.9318 27.2878C34.176 27.1284 34.4678 27.0635 34.7596 27.0576C34.8609 27.0576 34.9562 27.0576 35.0575 27.0753C35.1051 27.0812 35.1408 27.1284 35.1349 27.1756C35.1289 27.2287 35.0694 27.2641 35.0158 27.2464Z"
                fill="#FEDE59"
        />
        <path
                d="M35.2838 27.5298C34.9622 27.5062 34.6048 27.5652 34.3487 27.7777C34.4618 27.6479 34.6107 27.5475 34.7716 27.4826C34.9383 27.4117 35.1051 27.3704 35.2897 27.3527C35.3374 27.3527 35.3791 27.3881 35.385 27.4354C35.385 27.4885 35.3374 27.5357 35.2838 27.5298Z"
                fill="#FEDE59"
        />
        <path
                d="M35.6233 27.7364C35.2897 27.819 34.9324 27.8898 34.6286 28.061C34.9026 27.8367 35.2421 27.7128 35.5697 27.5711C35.6888 27.5239 35.7484 27.7068 35.6233 27.7423V27.7364Z"
                fill="#FEDE59"
        />
        <path
                d="M35.9449 27.8722C35.659 28.0492 35.3493 28.2204 35.123 28.4742C35.3017 28.1791 35.5816 27.9548 35.8437 27.7246C35.8794 27.6951 35.939 27.701 35.9687 27.7364C36.0045 27.7777 35.9926 27.8426 35.9449 27.8722Z"
                fill="#FEDE59"
        />
        <path
                d="M8.73756 23.0969C8.73756 23.0969 8.91029 23.0083 8.85073 22.8312C8.79117 22.6542 6.86736 20.5174 6.7125 20.6296C6.48617 20.7889 8.73756 23.0969 8.73756 23.0969Z"
                stroke="#FEDE59"
                stroke-width="0.3"
                stroke-miterlimit="10"
        />
        <path
                d="M10.7388 19.1185C10.7388 19.1185 10.9354 19.1185 10.9592 18.9296C10.983 18.7408 10.1968 16.1495 10.0062 16.179C9.73223 16.2203 10.7388 19.1185 10.7388 19.1185Z"
                stroke="#FEDE59"
                stroke-width="0.3"
                stroke-miterlimit="10"
        />
        <path
                d="M15.8134 19.396C15.8134 19.396 15.9921 19.514 16.1052 19.3664C16.2184 19.2189 17.2428 16.545 17.0582 16.4565C16.7961 16.3266 15.8074 19.396 15.8074 19.396H15.8134Z"
                stroke="#FEDE59"
                stroke-width="0.3"
                stroke-miterlimit="10"
        />
        <path
                d="M17.4513 21.5917C17.4513 21.5917 17.6538 21.7157 17.761 21.5504C17.8682 21.3851 18.4281 18.2863 18.2256 18.1977C17.9278 18.0679 17.4513 21.5976 17.4513 21.5976V21.5917Z"
                stroke="#FEDE59"
                stroke-width="0.3"
                stroke-miterlimit="10"
        />
        <path
                d="M14.0623 25.2455C14.0623 25.2455 14.2529 25.151 14.1874 24.9798C14.1219 24.8087 12.1683 22.5362 12.0015 22.6483C11.7573 22.8077 14.0623 25.2514 14.0623 25.2514V25.2455Z"
                stroke="#FEDE59"
                stroke-width="0.3"
                stroke-miterlimit="10"
        />
        <g opacity="0.49">
            <path
                    d="M24.1221 23.5042C24.1042 23.7875 23.9613 24.0532 23.735 24.2243C23.7469 23.941 23.8958 23.6754 24.1221 23.5042Z"
                    fill="#587260"
            />
        </g>
        <g opacity="0.49">
            <path
                    d="M23.6992 23.4039C23.6873 23.6813 23.5503 23.9528 23.324 24.1181C23.3359 23.8348 23.4729 23.5691 23.6992 23.4039Z"
                    fill="#587260"
            />
        </g>
        <g opacity="0.49">
            <path
                    d="M23.2108 23.4039C23.2168 23.64 23.0917 23.8702 22.8892 23.9882C22.8832 23.7521 23.0083 23.5219 23.2108 23.4039Z"
                    fill="#587260"
            />
        </g>
        <g opacity="0.49">
            <path
                    d="M22.645 23.5042C22.645 23.7285 22.514 23.941 22.3055 24.0413C22.3055 23.817 22.4365 23.6046 22.645 23.5042Z"
                    fill="#587260"
            />
        </g>
        <g opacity="0.49">
            <path
                    d="M22.0792 23.699C22.103 23.8702 21.9898 24.0295 21.8171 24.0649C21.7933 23.8938 21.9064 23.7344 22.0792 23.699Z"
                    fill="#587260"
            />
        </g>
        <g opacity="0.49">
            <path
                    d="M21.5312 23.9941C21.5193 24.1712 21.3764 24.3069 21.1977 24.3128C21.2096 24.1357 21.3525 24 21.5312 23.9941Z"
                    fill="#587260"
            />
        </g>
        <g opacity="0.49">
            <path
                    d="M24.1221 23.2563C23.9494 23.2386 23.8243 23.091 23.8362 22.9199C24.0089 22.9376 24.134 23.0851 24.1221 23.2563Z"
                    fill="#587260"
            />
        </g>
        <g opacity="0.49">
            <path
                    d="M23.6397 23.1205C23.4312 23.1028 23.2585 22.9493 23.2108 22.7487C23.4193 22.7664 23.592 22.9198 23.6397 23.1205Z"
                    fill="#587260"
            />
        </g>
        <g opacity="0.49">
            <path
                    d="M23.1215 23.1381C22.8654 23.1204 22.6271 22.9788 22.502 22.7545C22.7582 22.7722 22.9964 22.9197 23.1215 23.1381Z"
                    fill="#587260"
            />
        </g>
        <g opacity="0.49">
            <path
                    d="M22.6212 23.2563C22.4246 23.2917 22.234 23.1973 22.1447 23.0202C22.3412 22.9848 22.5318 23.0792 22.6212 23.2563Z"
                    fill="#587260"
            />
        </g>
        <g opacity="0.49">
            <path
                    d="M22.1506 23.4039C21.9541 23.4747 21.7278 23.4157 21.5967 23.2563C21.7933 23.1855 22.0196 23.2445 22.1506 23.4039Z"
                    fill="#587260"
            />
        </g>
        <g opacity="0.49">
            <path
                    d="M21.7278 23.5042C21.5848 23.6458 21.3644 23.6753 21.1917 23.5809C21.3347 23.4392 21.555 23.4097 21.7278 23.5042Z"
                    fill="#587260"
            />
        </g>
        <g opacity="0.49">
            <path
                    d="M21.2632 23.8642C21.1917 24.0118 21.0249 24.0708 20.876 23.9941C20.9416 23.8465 21.1143 23.7875 21.2632 23.8642Z"
                    fill="#587260"
            />
        </g>
        <g opacity="0.49">
            <path
                    d="M29.3039 24.4014C29.7387 24.2243 30.2152 24.1594 30.6797 24.2184C30.2449 24.3955 29.7685 24.4604 29.3039 24.4014Z"
                    fill="#587260"
            />
        </g>
        <g opacity="0.49">
            <path
                    d="M29.6791 24.7024C30.0424 24.5843 30.4415 24.5784 30.7989 24.7024C30.4355 24.8264 30.0424 24.8205 29.6791 24.7024Z"
                    fill="#587260"
            />
        </g>
        <g opacity="0.49">
            <path
                    d="M30.0067 25.1215C30.2985 25.0212 30.6261 25.0448 30.9001 25.1864C30.6083 25.2868 30.2807 25.2632 30.0067 25.1215Z"
                    fill="#587260"
            />
        </g>
        <g opacity="0.49">
            <path
                    d="M30.4594 25.5701C30.7333 25.4756 31.0431 25.4993 31.2992 25.6468C31.0252 25.7413 30.7155 25.7177 30.4594 25.5701Z"
                    fill="#587260"
            />
        </g>
        <g opacity="0.49">
            <path
                    d="M30.6797 25.9124C30.912 25.8416 31.1681 25.8947 31.3528 26.0541C31.1205 26.1308 30.8644 26.0718 30.6797 25.9124Z"
                    fill="#587260"
            />
        </g>
        <g opacity="0.49">
            <path
                    d="M30.8763 26.2961C31.049 26.2843 31.1979 26.4023 31.2217 26.5676C31.049 26.5853 30.9001 26.4614 30.8763 26.2961Z"
                    fill="#587260"
            />
        </g>
        <g opacity="0.49">
            <path
                    d="M30.9061 26.7329C31.0073 26.6561 31.1264 26.7152 31.1205 26.8391C31.0192 26.9159 30.9001 26.8568 30.9061 26.7329Z"
                    fill="#587260"
            />
        </g>
        <g opacity="0.49">
            <path
                    d="M29.1133 24.5253C29.0776 24.8677 28.9108 25.1923 28.6547 25.4284C28.6904 25.0861 28.8572 24.7614 29.1133 24.5253Z"
                    fill="#587260"
            />
        </g>
        <g opacity="0.49">
            <path
                    d="M29.3754 24.8677C29.4349 25.1156 29.3634 25.3871 29.1848 25.576C29.1252 25.3281 29.1967 25.0566 29.3754 24.8677Z"
                    fill="#587260"
            />
        </g>
        <g opacity="0.49">
            <path
                    d="M29.8697 25.3221C29.9293 25.5582 29.8578 25.8121 29.6851 25.9832C29.6255 25.7471 29.697 25.4933 29.8697 25.3221Z"
                    fill="#587260"
            />
        </g>
        <g opacity="0.49">
            <path
                    d="M30.1199 25.6527C30.1556 25.9774 30.0663 26.3079 29.8697 26.5676C29.834 26.243 29.9233 25.9124 30.1199 25.6527Z"
                    fill="#587260"
            />
        </g>
        <g opacity="0.49">
            <path
                    d="M30.4594 26.1131C30.507 26.3728 30.4236 26.6502 30.239 26.8391C30.1913 26.5794 30.2747 26.302 30.4594 26.1131Z"
                    fill="#587260"
            />
        </g>
        <g opacity="0.49">
            <path
                    d="M30.6797 26.6503C30.7631 26.7742 30.7095 26.9336 30.5666 26.9867C30.4832 26.8628 30.5368 26.7034 30.6797 26.6503Z"
                    fill="#587260"
            />
        </g>
        <g opacity="0.49">
            <path
                    d="M29.3754 23.9941C29.7387 23.8347 30.1437 23.7934 30.5308 23.8819C30.1675 24.0413 29.7625 24.0767 29.3754 23.9941Z"
                    fill="#587260"
            />
        </g>
        <g opacity="0.49">
            <path
                    d="M28.4939 24.5903C28.5177 24.8618 28.4105 25.1392 28.202 25.3281C28.1782 25.0507 28.2854 24.7792 28.4939 24.5903Z"
                    fill="#587260"
            />
        </g>
        <path
                d="M24.7892 12.8204L25.2418 14.2253H26.7189L25.5277 15.0929L25.9804 16.4978L24.7892 15.6301L23.592 16.4978L24.0506 15.0929L22.8535 14.2253H24.3306L24.7892 12.8204Z"
                fill="#DDB127"
        />
        <path
                d="M20.6199 37.7295L21.7397 38.3611L20.8284 41.5839C20.8284 41.5839 19.0773 40.6041 19.0773 40.4624C19.0773 40.3207 20.6199 37.7295 20.6199 37.7295Z"
                fill="#E48E43"
                stroke="#E48E43"
                stroke-width="0.3"
                stroke-miterlimit="10"
        />
        <path
                d="M7.75481 38.5322L9.67862 36.4781L10.4886 37.2218C10.7686 37.4815 10.9115 37.7649 10.9175 38.0836C10.9175 38.3964 10.7686 38.7152 10.4648 39.0457C10.2385 39.2877 10.0062 39.4471 9.76796 39.5238C9.52972 39.6006 9.30339 39.6124 9.08897 39.5533C8.87455 39.4943 8.68395 39.3881 8.51718 39.2346L7.76076 38.5381L7.75481 38.5322ZM8.29681 38.9218C8.49336 39.1048 8.68395 39.2287 8.87455 39.2936C9.06514 39.3586 9.26765 39.3527 9.48207 39.2759C9.69649 39.1992 9.92282 39.028 10.167 38.7683C10.3874 38.5381 10.5244 38.3197 10.5839 38.1249C10.6435 37.9301 10.6375 37.7412 10.5601 37.5642C10.4827 37.3871 10.3397 37.1982 10.1253 37.0034L9.93473 36.785L8.07643 38.7683L8.30276 38.9159L8.29681 38.9218Z"
                fill="#FEDE59"
        />
        <path
                d="M9.83943 40.4093L11.5667 38.1899L13.1808 39.4235L12.9366 39.7423C12.8651 39.5416 12.7758 39.3763 12.6686 39.2346C12.5614 39.093 12.4363 38.969 12.2814 38.8451C12.2695 38.8333 12.2516 38.8215 12.2397 38.8097C12.2278 38.7979 12.2159 38.786 12.198 38.7742L11.8288 38.4909L11.1498 39.3586L12.2576 40.2086L12.204 40.2794L11.0962 39.4294L10.2027 40.5745L10.5661 40.852C10.6971 40.9464 10.8281 41.0349 10.9711 41.1117C11.1081 41.1884 11.2451 41.2474 11.3821 41.2947C11.519 41.336 11.6382 41.3596 11.7394 41.3537L11.4952 41.6724L9.83347 40.4034L9.83943 40.4093ZM12.5494 38.5617L13.7407 38.4909L13.4429 38.2607L12.4958 38.5145L12.5554 38.5558L12.5494 38.5617Z"
                fill="#FEDE59"
        />
        <path
                d="M11.9836 41.5661C12.1027 41.8377 12.2278 42.0443 12.3589 42.1859C12.4899 42.3276 12.6269 42.3925 12.7698 42.3748C12.9128 42.363 13.0557 42.2449 13.1927 42.0384L14.3958 40.2263L14.7294 40.4447L13.5977 42.1505C13.3773 42.4811 13.1093 42.605 12.7996 42.5283C12.4839 42.4456 12.1444 42.2331 11.7811 41.879L11.9836 41.5721V41.5661Z"
                fill="#FEDE59"
        />
        <path
                d="M13.4905 42.9946L15.6704 41.1648L15.6943 40.9877L16.0278 41.1648L15.6585 44.1515L15.319 43.9685L15.4739 42.6994L14.5447 42.2036L13.556 43.03L13.4846 42.9887L13.4905 42.9946ZM14.6222 42.1505L15.4858 42.6109L15.6526 41.2828L14.6222 42.1446V42.1505ZM16.3316 40.9818L15.9087 39.878L16.2422 40.0551L16.3911 41.0172L16.3256 40.9818H16.3316Z"
                fill="#FEDE59"
        />
        <path
                d="M17.892 45.0605L17.8623 42.0738L18.2375 42.2036L18.2673 45.0192L20.0184 42.8293L20.0958 42.8588L18.2435 45.1845L17.892 45.0605Z"
                fill="#FEDE59"
        />
        <path
                d="M20.5604 45.8987C20.3519 45.8514 20.1732 45.7629 20.0303 45.639C19.8873 45.5091 19.7861 45.3497 19.7384 45.1431C19.6848 44.9424 19.6908 44.7122 19.7444 44.4466L20.1017 42.8588L20.4949 42.9474L20.066 44.8539C20.0243 45.0487 20.0184 45.2081 20.0601 45.3438C20.0958 45.4796 20.1613 45.5799 20.2566 45.6567C20.3459 45.7334 20.4591 45.7865 20.5842 45.8101C20.7807 45.8514 20.9535 45.8278 21.1143 45.7275C21.2751 45.6271 21.3823 45.4383 21.4478 45.1549L21.8767 43.2484L22.2638 43.3369L21.9064 44.9247C21.8469 45.1845 21.7516 45.3969 21.6205 45.5563C21.4895 45.7157 21.3287 45.8278 21.1441 45.881C20.9594 45.9341 20.7688 45.94 20.5604 45.8987Z"
                fill="#FEDE59"
        />
        <path
                d="M23.4788 46.2824L23.5086 43.6321L23.4133 43.4727H23.8839L25.486 46.064L25.5158 43.4963H25.5992L25.5635 46.3001H25.1704L23.5801 43.7619L23.5503 46.2765H23.4669L23.4788 46.2824Z"
                fill="#FEDE59"
        />
        <path
                d="M26.1889 46.2823L26.8202 43.5199L26.7309 43.3665L27.1061 43.3074L28.6308 45.9105L28.2497 45.9695L27.6064 44.8657L26.5641 45.0251L26.2782 46.2705L26.1948 46.2823H26.1889ZM26.576 44.9307L27.5468 44.7831L26.8738 43.6262L26.576 44.9307Z"
                fill="#FEDE59"
        />
        <path
                d="M29.0716 45.7747L28.3688 43.0595L28.7559 42.9592L29.4587 45.6744L29.0716 45.7747Z"
                fill="#FEDE59"
        />
        <path
                d="M30.0663 45.5209L29.1252 42.8766L29.5004 42.7467L30.4117 45.3084L30.7393 45.1963C30.8763 45.1491 30.9954 45.09 31.1086 45.0251C31.2217 44.9602 31.3111 44.8894 31.3885 44.8244C31.4659 44.7536 31.5374 44.6769 31.6089 44.5883L31.6327 44.5529L31.7697 44.9307L30.0722 45.5268L30.0663 45.5209Z"
                fill="#FEDE59"
        />
        <path
                d="M33.0264 42.5047C32.8001 42.4162 32.6393 42.2922 32.5499 42.1387C32.4844 42.0266 32.4606 41.9085 32.4785 41.7846C32.4963 41.6606 32.544 41.5426 32.6274 41.4245C32.7108 41.3124 32.812 41.2179 32.9371 41.1471C33.1217 41.0409 33.3064 41.0054 33.4791 41.035C33.6518 41.0645 33.7948 41.1707 33.902 41.3537C33.9139 41.3773 33.9317 41.4127 33.9556 41.4658L33.6816 41.6193C33.6578 41.5662 33.6399 41.5249 33.622 41.4895C33.5625 41.3891 33.497 41.3124 33.4136 41.2652C33.3361 41.212 33.2468 41.1884 33.1575 41.1884C33.0681 41.1884 32.9788 41.212 32.8954 41.2593C32.7882 41.3183 32.7167 41.4068 32.6869 41.519C32.6512 41.6311 32.6691 41.7433 32.7346 41.8554C32.7763 41.9263 32.8358 41.9912 32.9133 42.0561C32.9907 42.121 33.0919 42.1742 33.2051 42.2155L35.3433 43.0773L34.9681 43.2898L33.0205 42.5047H33.0264ZM34.1402 43.8387C33.9437 43.9508 33.765 44.0099 33.5982 44.0276C33.4314 44.0453 33.2885 44.0217 33.1634 43.9567C33.0383 43.8977 32.943 43.8033 32.8775 43.6911C32.818 43.5849 32.7882 43.4668 32.7882 43.337C32.7882 43.2012 32.8239 43.0655 32.8894 42.9238C32.955 42.7821 33.0622 42.6405 33.1992 42.5106L33.2528 42.5283C33.1277 42.6877 33.0622 42.853 33.0562 43.0359C33.0503 43.2189 33.086 43.3842 33.1753 43.5377C33.2408 43.6557 33.3242 43.7443 33.4314 43.8033C33.5327 43.8682 33.6459 43.8977 33.7709 43.8918C33.896 43.8918 34.0211 43.8505 34.1462 43.7797C34.3189 43.6793 34.4559 43.5377 34.5571 43.3606C34.6584 43.1776 34.7001 42.9828 34.6941 42.7644C34.6882 42.546 34.6227 42.3335 34.5035 42.121C34.4201 41.9794 34.3189 41.8495 34.1998 41.7433L34.4678 41.5898C34.5512 41.6547 34.6227 41.7374 34.6763 41.8318C34.8013 42.0502 34.8609 42.2922 34.8609 42.5519C34.8609 42.8175 34.7894 43.0655 34.6643 43.2957C34.5393 43.5259 34.3665 43.7088 34.1402 43.8328V43.8387Z"
                fill="#FEDE59"
        />
        <path
                d="M37.5411 41.5721C37.3505 41.7255 37.1004 41.8908 36.7966 42.0679L36.5465 41.755C36.6656 41.7432 36.7907 41.7255 36.9277 41.6842C37.0646 41.6488 37.1957 41.6016 37.3267 41.5367C37.4577 41.4717 37.565 41.4127 37.6603 41.336C37.8389 41.1943 37.9581 41.0467 38.0117 40.8874C38.0653 40.728 38.0295 40.5863 37.9104 40.4506C37.827 40.362 37.7258 40.3089 37.5947 40.2912C37.4637 40.2735 37.3327 40.2735 37.1897 40.2912C37.0468 40.3148 36.8681 40.3502 36.6477 40.4034C36.4214 40.4565 36.2368 40.4919 36.0938 40.5155C35.9509 40.5332 35.8139 40.5332 35.6888 40.5155C35.5637 40.4978 35.4565 40.4329 35.3791 40.3384C35.2361 40.1613 35.2183 39.9666 35.3195 39.76C35.4267 39.5475 35.6114 39.335 35.8853 39.1225C36.0938 38.9572 36.344 38.7978 36.6477 38.6326L36.8979 38.9454C36.7668 38.9454 36.6299 38.9749 36.4869 39.0103C36.344 39.0458 36.207 39.0989 36.0759 39.1579C35.9449 39.2169 35.8317 39.2878 35.7424 39.3586C35.6054 39.4707 35.5101 39.5829 35.4625 39.695C35.4148 39.8072 35.4327 39.9134 35.5101 40.0138C35.5697 40.0846 35.6531 40.1318 35.7543 40.1436C35.8556 40.1554 35.9747 40.1554 36.0938 40.1318C36.2129 40.1082 36.3737 40.0728 36.5762 40.0197C36.8204 39.9607 37.017 39.9193 37.1778 39.8957C37.3327 39.8721 37.4875 39.8721 37.6424 39.8957C37.7913 39.9193 37.9164 39.9902 38.0176 40.0964C38.2261 40.3325 38.2797 40.5686 38.1725 40.8224C38.0712 41.0703 37.8568 41.3242 37.5411 41.5721Z"
                fill="#FEDE59"
        />
        <path
                d="M38.911 40.3679L36.9634 38.3315L37.8508 37.4934C37.9759 37.3753 38.1129 37.2986 38.2559 37.2691C38.3988 37.2395 38.5358 37.2454 38.6609 37.2868C38.786 37.334 38.8991 37.4048 38.9944 37.4993C39.1076 37.6173 39.1731 37.7472 39.1969 37.8888C39.2207 38.0305 39.2088 38.1781 39.1612 38.3197C39.1135 38.4614 39.0361 38.5853 38.9349 38.6916L38.375 39.2169L39.2088 40.0846L38.917 40.3561L38.911 40.3679ZM38.7383 38.7624C38.8455 38.6621 38.911 38.5558 38.9349 38.4378C38.9646 38.3197 38.9527 38.2017 38.917 38.0836C38.8812 37.9656 38.8098 37.8652 38.7264 37.7767C38.643 37.6881 38.5418 37.6232 38.4345 37.576C38.3273 37.5288 38.2082 37.517 38.095 37.5347C37.9759 37.5524 37.8687 37.6114 37.7675 37.7059L37.3208 38.1249L38.3154 39.1638L38.7443 38.7624H38.7383Z"
                fill="#FEDE59"
        />
        <path
                d="M40.549 38.8333L39.3041 36.2833L39.1374 36.2184L39.3935 35.941L42.2226 37.033L41.9605 37.3163L40.7634 36.85L40.0486 37.6173L40.6085 38.7683L40.549 38.8274V38.8333ZM40.0069 37.5347L40.674 36.8205L39.4173 36.3306L40.0069 37.5347Z"
                fill="#FEDE59"
        />
    </g>
    <defs>
        <clipPath id="clip0_67_170">
            <rect width="48" height="48" fill="white" />
        </clipPath>
    </defs>
</svg>